<?xml version="1.0" standalone="no"?>
<!DOCTYPE svg PUBLIC "-//W3C//DTD SVG 20010904//EN"
 "http://www.w3.org/TR/2001/REC-SVG-20010904/DTD/svg10.dtd">
<svg version="1.0" xmlns="http://www.w3.org/2000/svg"
 width="831.000000pt" height="841.000000pt" viewBox="0 0 831.000000 841.000000"
 preserveAspectRatio="xMidYMid meet">

<g transform="translate(0.000000,841.000000) scale(0.100000,-0.100000)"
fill="#000000" stroke="none">
<path d="M3845 8359 c-1691 -111 -3170 -1269 -3686 -2887 -56 -177 -94 -325
-129 -506 l-30 -159 0 -607 c0 -496 3 -624 15 -696 202 -1187 888 -2210 1915
-2856 147 -93 489 -266 645 -327 372 -146 731 -234 1135 -277 212 -23 630 -23
840 0 960 104 1808 500 2489 1161 682 661 1105 1509 1231 2465 31 233 38 659
16 897 -85 885 -417 1674 -985 2338 -862 1007 -2130 1540 -3456 1454z m365
-1106 c0 -457 -4 -497 -52 -600 -12 -27 -43 -69 -69 -95 -70 -70 -108 -78
-361 -78 l-208 0 0 600 0 600 345 0 345 0 0 -427z m215 402 c192 -50 352 -234
390 -450 8 -44 14 -90 15 -103 l0 -23 -265 1 -265 1 0 295 0 294 33 0 c18 0
59 -7 92 -15z m-2521 -2804 c13 -15 14 -20 4 -24 -8 -2 -22 1 -32 9 -13 9 -24
10 -37 3 -29 -15 -23 -33 20 -57 21 -12 45 -29 52 -38 12 -15 14 -14 19 7 7
30 34 32 38 3 3 -22 3 -22 28 3 21 21 31 24 60 19 l34 -7 0 51 c0 36 4 50 14
50 11 0 14 -15 12 -64 l-2 -64 24 19 c34 26 68 24 98 -6 35 -35 26 -49 -34
-53 -40 -2 -50 -6 -45 -18 6 -17 36 -18 63 -2 29 18 39 -1 11 -23 -28 -23 -60
-24 -87 -4 -21 16 -38 20 -30 6 3 -5 -15 -12 -40 -16 -47 -7 -93 11 -95 38 -1
6 -4 1 -8 -13 -10 -34 -34 -31 -42 5 -4 17 -7 22 -8 13 -1 -21 -39 -48 -68
-48 -12 0 -35 11 -50 24 -23 20 -26 27 -15 37 10 11 15 9 28 -9 19 -28 60 -29
74 -1 14 25 1 43 -52 70 -46 23 -59 60 -33 89 23 26 76 26 99 1z m552 -6 c10
-15 14 -34 10 -49 -3 -14 -1 -28 5 -31 18 -12 27 -49 17 -77 -10 -29 -46 -46
-93 -42 -16 1 -36 3 -42 3 -10 1 -13 30 -13 111 l0 110 50 0 c42 0 52 -4 66
-25z m-488 -43 c2 -7 -6 -12 -17 -12 -21 0 -27 11 -14 24 9 9 26 2 31 -12z
m565 -57 c1 -5 -6 -11 -15 -13 -11 -2 -18 3 -18 13 0 17 30 18 33 0z m-5 -82
c-4 -22 -22 -20 -26 1 -2 10 3 16 13 16 10 0 15 -7 13 -17z m-653 -140 c23
-65 46 -115 50 -111 2 2 17 37 33 78 16 41 34 76 40 78 5 1 22 -46 36 -106 30
-127 30 -122 12 -122 -8 0 -20 26 -32 70 -20 80 -31 79 -59 -5 -29 -87 -35
-86 -71 7 l-32 83 -11 -41 c-6 -22 -14 -55 -17 -73 -6 -29 -28 -51 -39 -39 -3
2 4 36 14 74 11 38 24 88 31 112 6 23 14 42 19 42 5 0 16 -21 26 -47z m375
-18 c0 -13 8 -29 18 -34 16 -10 16 -12 0 -25 -13 -9 -18 -27 -18 -60 0 -34 -4
-46 -15 -46 -11 0 -15 12 -15 50 0 29 -5 50 -11 50 -6 0 -10 -16 -9 -37 3 -64
4 -63 -52 -63 -61 0 -88 19 -88 63 0 50 24 67 97 67 l63 0 0 30 c0 20 5 30 15
30 9 0 15 -9 15 -25z m170 -100 l0 -65 -52 0 c-59 0 -88 19 -88 59 0 15 7 37
16 49 12 18 25 22 70 22 l54 0 0 -65z m131 33 c17 -42 28 -43 44 -4 9 20 22
36 30 36 8 0 15 -2 15 -5 0 -11 -83 -176 -92 -181 -18 -11 -19 4 -4 40 14 34
14 40 -5 80 -19 37 -24 42 -50 38 -27 -4 -29 -7 -29 -53 0 -37 -4 -49 -15 -49
-12 0 -15 14 -15 65 l0 65 54 -1 c50 -1 56 -4 67 -31z m-681 -249 l0 -71 19
23 c15 19 29 24 77 25 33 1 62 3 66 3 4 1 8 20 10 44 3 38 6 42 31 45 15 2 27
-1 27 -7 0 -6 -7 -11 -15 -11 -10 0 -15 -11 -15 -35 0 -30 3 -35 24 -35 22 0
25 5 28 43 3 38 6 42 31 45 15 2 27 -1 27 -7 0 -6 -7 -11 -15 -11 -23 0 -20
-66 3 -75 16 -6 16 -7 0 -19 -11 -8 -18 -30 -20 -61 -4 -71 -28 -72 -28 -1 0
53 -1 56 -24 56 -23 0 -25 -4 -28 -52 -4 -74 -28 -77 -28 -4 0 71 -18 74 -22
4 l-3 -52 -48 -3 c-39 -3 -52 1 -71 21 -23 22 -25 22 -29 5 -7 -26 -33 -34
-63 -20 -31 14 -21 35 12 27 l24 -6 0 100 c0 82 3 100 15 100 12 0 15 -15 15
-71z m655 55 c11 -12 13 -20 6 -27 -8 -8 -15 -7 -23 1 -16 16 -43 15 -58 -3
-10 -12 -3 -19 39 -45 28 -18 51 -36 51 -42 0 -6 8 0 19 13 23 28 81 31 109 6
19 -17 20 -17 25 5 9 34 25 11 29 -42 3 -38 7 -46 26 -48 20 -3 22 0 22 47 0
37 4 51 14 51 8 0 17 -6 19 -12 3 -7 6 15 6 50 1 48 4 62 16 62 12 0 15 -19
15 -115 0 -63 -4 -115 -8 -115 -4 0 -13 5 -20 12 -7 7 -12 8 -12 2 0 -6 -18
-11 -40 -12 -28 -1 -45 4 -58 19 -16 17 -20 18 -25 5 -3 -8 -22 -18 -42 -22
-28 -5 -43 -2 -63 13 -26 19 -28 19 -46 1 -28 -26 -72 -23 -103 8 -21 21 -23
28 -12 34 9 6 20 2 32 -11 27 -29 71 -22 75 12 3 22 -4 31 -42 53 -48 28 -66
52 -58 76 12 40 77 54 107 24z m-210 -144 l0 -64 -43 -3 c-24 -1 -53 2 -63 8
-45 24 -43 100 3 118 13 5 41 8 63 7 l40 -2 0 -64z m-442 -225 l76 -85 3 83
c4 97 22 110 26 19 3 -62 3 -62 25 -47 49 34 117 7 117 -47 0 -17 -7 -40 -17
-50 -20 -23 -80 -24 -105 -1 -17 15 -18 15 -18 -8 -1 -20 -13 -10 -83 64 l-82
88 2 -80 c2 -66 0 -81 -12 -81 -12 0 -15 20 -15 115 0 63 2 115 4 115 2 0 38
-38 79 -85z m435 -33 c2 -95 0 -112 -13 -112 -12 0 -15 17 -15 100 0 86 -2
100 -16 100 -14 0 -14 3 -4 15 7 9 20 14 29 13 13 -3 16 -22 19 -116z m-148
-97 c0 -8 -9 -15 -20 -15 -20 0 -26 11 -13 23 12 13 33 7 33 -8z m-256 -114
c19 -21 3 -42 -17 -22 -16 16 -54 14 -61 -4 -3 -9 5 -22 21 -32 14 -10 39 -30
54 -45 l29 -26 0 75 c0 55 3 74 13 71 6 -3 14 -24 17 -49 4 -38 9 -44 29 -47
40 -4 51 -21 51 -78 0 -40 -4 -54 -14 -54 -11 0 -16 15 -18 53 -3 44 -6 52
-23 52 -17 0 -21 -8 -25 -49 -5 -53 -30 -78 -30 -30 l0 27 -21 -27 c-15 -19
-30 -26 -55 -26 -33 0 -74 28 -74 50 0 15 26 12 40 -5 24 -28 80 -13 80 22 0
8 -23 28 -50 45 -58 36 -72 68 -45 98 23 26 76 26 99 1z m176 -57 c0 -8 -7
-14 -15 -14 -15 0 -21 21 -9 33 10 9 24 -2 24 -19z m170 6 c0 -5 -5 -12 -11
-16 -14 -8 -33 11 -25 25 7 11 36 4 36 -9z m-52 -48 c11 -14 12 -14 12 1 0 29
30 19 31 -10 l2 -28 4 26 c3 21 11 28 36 32 41 6 77 -8 77 -29 0 -13 3 -12 18
5 18 22 32 25 95 23 l37 -2 0 -73 c0 -61 -3 -77 -20 -92 -33 -30 -120 -15
-120 20 0 19 24 19 40 0 15 -18 42 -19 58 -3 20 20 14 28 -18 22 -19 -4 -38
-1 -54 9 -21 14 -25 14 -30 2 -12 -32 -26 -13 -26 34 0 41 -4 51 -20 56 -31
10 -40 -2 -40 -56 0 -37 -4 -49 -15 -49 -8 0 -15 6 -15 13 0 9 -2 9 -8 0 -4
-7 -21 -11 -37 -10 -28 2 -30 5 -35 52 -4 42 -8 50 -25 50 -17 0 -21 -8 -25
-49 -8 -77 -30 -71 -30 7 0 60 2 66 23 70 33 6 70 -3 85 -21z m-118 -47 c0
-51 -3 -65 -15 -65 -12 0 -15 14 -15 65 0 51 3 65 15 65 12 0 15 -14 15 -65z
m2470 -1265 c0 -19 -7 -20 -135 -20 l-135 0 0 -100 0 -100 -25 0 -25 0 0 120
0 120 160 0 c153 0 160 -1 160 -20z m70 -80 l0 -100 115 0 115 0 0 100 c0 93
1 100 20 100 19 0 20 -7 20 -120 l0 -120 -154 0 c-114 0 -155 3 -158 13 -3 10
-3 154 1 210 1 10 9 17 21 17 19 0 20 -7 20 -100z m70 35 l0 -65 45 0 45 0 0
65 c0 58 2 65 19 65 23 0 28 -25 23 -112 l-4 -58 -89 0 -89 0 0 85 c0 84 0 85
25 85 24 0 25 -2 25 -65z m540 45 c0 -19 -7 -20 -135 -20 l-135 0 0 -80 0 -80
115 0 115 0 0 45 0 45 -80 0 c-47 0 -80 -4 -80 -10 0 -6 28 -10 65 -10 58 0
65 -2 65 -20 0 -19 -7 -20 -91 -20 l-90 0 3 53 3 52 124 0 125 0 -1 -67 c-1
-38 -2 -77 -2 -88 -1 -19 -8 -20 -156 -20 l-155 0 0 120 0 120 155 0 c148 0
155 -1 155 -20z m71 -17 c1 -21 1 -66 1 -100 l-1 -63 115 0 114 0 0 100 c0 93
1 100 20 100 19 0 20 -7 20 -120 l0 -120 -155 0 -155 0 0 120 c0 113 1 120 20
120 16 0 20 -7 21 -37z m69 -28 l0 -65 45 0 45 0 0 65 c0 58 2 65 20 65 20 0
22 -8 22 -95 0 -81 8 -75 -89 -75 l-88 0 2 77 c0 43 1 81 2 86 1 4 10 7 21 7
18 0 20 -7 20 -65z m540 45 c0 -18 -8 -20 -132 -22 l-133 -3 -3 -77 -3 -78
134 0 c126 0 135 -1 140 -20 5 -19 0 -20 -154 -20 l-159 0 0 120 0 120 155 0
c148 0 155 -1 155 -20z m-1360 -65 l0 -25 -125 0 -125 0 0 25 0 25 125 0 125
0 0 -25z m1360 0 l0 -25 -120 0 -120 0 0 25 0 25 120 0 120 0 0 -25z m-1360
-65 c0 -19 -7 -20 -99 -20 l-100 0 -3 -32 c-2 -25 -8 -34 -25 -36 -22 -3 -23
0 -23 52 l0 56 125 0 c118 0 125 -1 125 -20z m1360 1 c0 -27 -18 -31 -136 -31
l-104 0 0 25 0 25 120 0 c111 0 120 -1 120 -19z m-3225 -121 c0 -12 -23 -15
-137 -18 l-138 -3 0 -79 0 -80 134 0 c74 0 137 -4 140 -9 4 -5 3 -16 0 -25 -5
-14 -29 -16 -160 -16 l-154 0 0 125 0 126 158 -3 c132 -3 157 -5 157 -18z
m340 0 c0 -12 -23 -15 -137 -18 l-138 -3 0 -79 0 -79 138 -3 c129 -3 137 -4
137 -23 0 -19 -8 -20 -157 -23 l-158 -3 0 126 0 126 158 -3 c132 -3 157 -5
157 -18z m235 -44 c0 -56 2 -64 21 -69 36 -10 20 -42 -24 -45 l-37 -3 0 70 0
71 -65 0 -65 0 0 -105 c0 -98 -1 -105 -20 -105 -19 0 -20 7 -20 125 l0 125
105 0 105 0 0 -64z m105 -61 l0 -120 -107 -3 -108 -3 0 71 c0 56 -3 70 -15 70
-8 0 -15 9 -15 21 0 17 5 20 38 17 l37 -3 3 -62 3 -63 59 0 60 0 0 101 c0 98
0 100 23 97 21 -3 22 -6 22 -123z m343 103 c3 -17 -10 -18 -157 -18 -155 0
-161 1 -161 20 0 20 5 20 157 18 141 -3 158 -5 161 -20z m337 -68 l0 -85 -88
-3 c-87 -3 -88 -2 -85 20 3 21 9 23 66 26 l62 3 0 44 0 45 -113 0 -112 0 0
-102 c0 -99 -1 -103 -22 -106 -23 -3 -23 -2 -23 123 l0 126 158 -3 157 -3 0
-85z m136 83 c3 -26 4 -220 1 -230 -2 -7 -13 -13 -23 -13 -17 0 -19 9 -19 105
0 84 -3 105 -14 105 -12 0 -15 -19 -14 -92 0 -122 1 -118 -22 -118 -19 0 -20
7 -20 125 l0 125 55 0 c30 0 55 -3 56 -7z m-1496 -83 c0 -12 -19 -16 -102 -18
-129 -3 -137 -22 -10 -22 98 0 124 -8 114 -34 -5 -13 -26 -16 -132 -16 l-125
0 0 48 c0 27 3 52 7 56 4 3 61 5 127 4 100 -3 121 -6 121 -18z m343 3 c-3 -16
-18 -18 -118 -21 -125 -3 -142 0 -134 23 5 12 28 15 131 15 113 0 124 -2 121
-17z m510 -70 c-3 -83 -4 -88 -25 -91 -22 -3 -23 0 -23 67 l0 71 -50 0 c-43 0
-50 3 -50 20 0 18 7 20 75 20 l76 0 -3 -87z m170 70 c-2 -14 -15 -19 -51 -21
l-47 -3 0 -54 c0 -66 -7 -85 -31 -85 -17 0 -19 8 -19 90 l0 90 76 0 c66 0 75
-2 72 -17z m272 -3 c0 -18 -7 -20 -70 -20 l-70 0 0 -45 0 -44 103 -3 c94 -3
102 -4 102 -23 0 -19 -8 -20 -122 -23 l-123 -3 0 91 0 90 90 0 c83 0 90 -1 90
-20z m434 -6 c19 -18 20 -36 4 -52 -8 -8 -8 -15 2 -27 7 -8 8 -15 2 -15 -5 0
-15 7 -22 15 -16 20 -40 19 -40 -1 0 -8 -4 -12 -10 -9 -11 7 -14 88 -3 98 12
13 51 7 67 -9z m106 7 c0 -5 -10 -11 -22 -13 -32 -5 -35 -28 -4 -28 14 0 26
-4 26 -10 0 -5 -11 -10 -25 -10 -14 0 -25 -4 -25 -10 0 -5 11 -10 25 -10 14 0
25 -5 25 -11 0 -6 -16 -9 -37 -7 -36 3 -38 5 -41 42 -2 21 -1 44 2 52 6 16 76
20 76 5z m91 -1 c10 -6 19 -15 19 -21 0 -6 -6 -7 -16 -1 -29 16 -55 2 -52 -27
3 -23 7 -26 36 -24 42 1 38 -21 -5 -25 -50 -5 -79 52 -44 87 24 24 34 25 62
11z m121 -7 c20 -18 24 -63 6 -81 -16 -16 -50 -15 -70 1 -27 21 -30 51 -8 75
25 26 47 28 72 5z m108 -3 c17 -17 18 -24 10 -41 -9 -15 -8 -24 1 -35 9 -11 8
-14 -5 -14 -9 0 -19 7 -22 15 -4 8 -12 15 -20 15 -8 0 -14 -7 -14 -15 0 -8 -4
-15 -10 -15 -5 0 -10 25 -10 55 0 52 1 55 25 55 14 0 34 -9 45 -20z m118 -7
c28 -39 -4 -87 -55 -81 -25 3 -28 8 -31 42 -5 58 3 70 41 62 17 -3 38 -14 45
-23z m86 21 c22 -8 20 -26 -1 -23 -41 4 -46 -3 -13 -19 19 -9 35 -23 35 -31 0
-21 -29 -35 -59 -27 -33 8 -26 25 9 18 32 -6 33 16 1 24 -29 7 -41 31 -25 50
12 15 28 17 53 8z m-2025 -53 c8 -5 11 -16 8 -25 -5 -13 -26 -16 -126 -16 -92
0 -120 3 -124 14 -11 28 17 36 123 36 58 0 111 -4 119 -9z m2671 -941 c0 -5
-6 -10 -12 -13 -7 -2 -5 -3 4 -2 22 4 42 -20 34 -40 -3 -8 -17 -15 -31 -15
-28 0 -34 16 -7 23 11 3 7 5 -10 6 -21 1 -25 -3 -21 -18 3 -13 -4 -25 -22 -37
-27 -17 -28 -17 -42 2 -14 18 -15 18 -8 -5 6 -21 5 -23 -14 -18 -14 3 -21 0
-21 -10 0 -9 -6 -12 -19 -8 -12 3 -21 0 -25 -10 -3 -9 -18 -15 -34 -15 -16 0
-35 -7 -42 -15 -18 -21 -57 -19 -70 5 -6 11 -18 19 -28 19 -16 -1 -16 -2 1 -6
18 -5 23 -18 10 -26 -5 -2 -3 -2 4 -1 12 3 29 -14 21 -21 -1 -2 -15 -6 -30
-10 -23 -6 -30 -3 -38 16 -10 22 -10 22 -5 -5 5 -25 3 -28 -14 -23 -11 3 -22
0 -25 -7 -7 -16 -36 23 -36 50 0 24 23 37 51 29 11 -4 19 -2 19 5 0 14 43 30
54 20 4 -4 17 1 28 12 20 20 39 20 46 0 2 -7 -6 -12 -17 -12 -22 0 -29 -24
-11 -35 18 -11 40 15 40 46 0 22 6 30 25 35 14 3 32 3 40 0 10 -4 14 -2 9 5
-8 13 13 29 39 29 10 0 26 7 34 16 10 10 27 14 45 12 18 -3 28 0 28 8 0 7 8
17 17 23 18 10 33 6 33 -9z m-2890 -75 c0 -30 16 -33 25 -4 5 15 10 18 18 10
7 -7 7 -17 -1 -35 -9 -20 -8 -25 5 -30 17 -7 33 9 33 32 0 6 7 12 15 12 17 0
17 -6 5 -35 -6 -15 -2 -24 14 -37 l21 -18 -21 0 c-29 0 -127 41 -137 57 -4 7
-20 13 -35 13 l-27 1 35 29 c42 36 50 37 50 5z m238 -73 c10 -13 12 -13 12 -1
1 11 3 11 13 -3 8 -10 22 -14 38 -11 15 3 30 -1 38 -11 7 -8 19 -12 27 -9 9 3
14 -2 14 -16 0 -24 18 -28 26 -7 4 11 13 12 42 4 20 -5 50 -12 66 -16 29 -7
49 -32 26 -32 -9 0 -9 -4 0 -16 11 -12 11 -18 -2 -31 -19 -18 -58 -9 -58 14 0
10 6 13 17 9 16 -6 16 -6 0 12 -9 10 -14 22 -10 25 3 4 1 7 -5 7 -6 0 -13 -13
-17 -30 -6 -29 -15 -37 -27 -24 -4 3 -2 19 2 35 7 22 6 29 -3 26 -6 -2 -14
-14 -17 -27 -7 -30 -30 -38 -30 -11 0 24 -10 27 -29 9 -11 -10 -14 -10 -18 -1
-3 8 -14 11 -28 7 -16 -4 -29 1 -44 17 -11 13 -21 17 -21 11 0 -7 -5 -12 -11
-12 -7 0 -10 12 -6 33 5 32 5 32 -6 5 -12 -31 -25 -36 -33 -14 -3 8 -13 12
-25 9 -13 -4 -18 -1 -14 8 24 70 25 70 48 64 12 -4 28 -14 35 -23z m2132 -42
c0 -5 -6 -10 -12 -10 -10 0 -9 -3 1 -9 7 -5 11 -13 7 -19 -3 -5 2 -13 11 -16
15 -6 15 -8 3 -16 -25 -16 -60 -12 -61 8 -1 11 -4 8 -8 -8 -6 -21 -13 -25 -42
-24 -19 0 -38 -6 -42 -13 -9 -15 -53 -17 -62 -3 -4 6 -14 2 -24 -11 -20 -25
-60 -19 -62 9 0 11 -3 12 -6 5 -2 -7 -11 -13 -19 -13 -8 0 -14 -7 -14 -15 0
-18 -16 -20 -23 -2 -3 7 -6 5 -6 -5 -1 -18 -16 -24 -24 -10 -3 4 -6 21 -8 37
-4 36 13 46 23 13 6 -22 6 -21 7 4 1 20 7 29 25 34 38 9 61 1 64 -24 2 -12 10
-22 17 -22 11 0 13 8 8 31 -4 23 -2 30 8 28 8 -1 27 4 42 11 27 13 30 12 48
-10 l20 -25 -7 29 c-5 22 -4 28 7 24 8 -3 15 -14 17 -26 2 -12 10 -22 17 -22
11 0 13 8 8 31 -5 25 -3 31 8 27 8 -3 20 1 27 9 16 15 52 18 52 3z m-1725 -60
c4 -6 14 -9 23 -6 30 9 117 -20 116 -38 -1 -9 2 -16 7 -16 5 0 9 7 9 15 0 10
10 15 31 15 29 0 31 -2 24 -27 -4 -16 -7 -36 -7 -46 1 -16 -4 -18 -26 -12 -15
4 -38 9 -52 11 -118 16 -148 24 -155 41 -5 15 -7 15 -15 3 -14 -23 -22 -5 -15
34 6 29 12 36 31 36 12 0 26 -5 29 -10z m1311 -28 c7 -4 13 -20 14 -37 3 -45
1 -49 -17 -34 -13 11 -17 11 -20 2 -8 -22 -21 -14 -28 17 -9 43 -27 38 -19 -5
5 -28 3 -35 -10 -35 -11 0 -16 9 -16 30 0 17 -4 30 -10 30 -5 0 -10 -13 -10
-30 0 -29 -13 -40 -25 -20 -9 15 -25 12 -25 -5 0 -8 -4 -15 -10 -15 -5 0 -10
7 -10 15 0 8 -4 15 -9 15 -5 0 -8 -8 -7 -17 1 -13 -7 -19 -26 -21 -23 -3 -28
1 -28 17 0 19 -26 41 -49 41 -6 0 -11 -9 -11 -21 0 -18 4 -20 26 -15 19 5 25
3 22 -6 -3 -7 -19 -14 -36 -16 -26 -3 -32 1 -38 23 -9 35 12 58 48 53 16 -3
31 -1 34 4 7 11 71 10 95 -2 15 -8 19 -7 19 4 0 10 15 17 48 21 26 4 52 8 57
10 17 6 30 5 41 -3z m-996 -37 c6 -18 7 -18 17 -1 7 13 19 17 48 14 39 -3 62
-27 28 -29 -10 0 -13 -3 -5 -6 17 -7 15 -21 -5 -26 -14 -4 -14 -5 3 -6 16 -1
23 6 28 29 4 23 11 30 29 30 29 0 47 -18 47 -47 0 -31 -26 -41 -94 -35 l-58 5
6 36 5 36 -20 -32 c-12 -18 -25 -33 -29 -33 -5 0 -12 15 -16 33 -6 27 -8 29
-14 12 -4 -11 -5 -26 -3 -32 7 -18 -7 -16 -29 4 -11 9 -18 11 -18 5 0 -7 -4
-12 -10 -12 -11 0 -13 39 -4 65 9 23 85 15 94 -10z m611 -28 c10 -39 2 -57
-27 -57 -21 0 -24 5 -24 38 0 21 3 42 7 46 14 14 37 0 44 -27z m-306 -17 c0
-32 -3 -35 -32 -38 -38 -4 -56 20 -42 56 7 19 15 23 41 20 30 -3 33 -6 33 -38z
m100 30 c4 -6 13 -5 25 3 15 9 25 9 38 1 12 -8 22 -8 33 -1 28 18 49 1 47 -38
-1 -34 -3 -36 -37 -34 -20 1 -43 -1 -51 -5 -18 -7 -32 2 -49 29 -11 19 -12 19
-6 -2 6 -20 3 -23 -24 -23 -37 0 -38 6 -8 38 l22 24 -22 -6 c-22 -7 -31 3 -16
17 10 10 41 8 48 -3z"/>
<path d="M3765 7041 c-140 -65 -167 -247 -52 -348 137 -120 348 -18 347 167
-1 140 -165 241 -295 181z"/>
<path d="M2010 4735 c-10 -12 -10 -21 -2 -40 14 -31 56 -34 72 -5 24 44 -38
83 -70 45z"/>
<path d="M2155 4740 c-4 -6 8 -10 30 -10 22 0 34 4 30 10 -3 6 -17 10 -30 10
-13 0 -27 -4 -30 -10z"/>
<path d="M2377 4843 c-4 -3 -7 -19 -7 -35 0 -26 3 -29 26 -26 31 3 54 32 39
47 -15 13 -50 22 -58 14z"/>
<path d="M2370 4715 c0 -44 0 -45 33 -45 44 0 73 30 58 58 -12 22 -32 32 -67
32 -22 0 -24 -4 -24 -45z"/>
<path d="M2106 4434 c-9 -8 -16 -22 -16 -29 0 -13 26 -45 36 -45 20 0 44 25
44 45 0 14 -8 29 -19 35 -25 13 -27 13 -45 -6z"/>
<path d="M2328 4439 c-27 -15 -23 -57 7 -71 19 -8 28 -8 40 2 21 18 19 57 -4
70 -23 12 -22 12 -43 -1z"/>
<path d="M1912 4123 c-6 -11 -6 -27 -1 -41 7 -18 15 -23 35 -20 35 4 53 31 38
56 -16 24 -60 28 -72 5z"/>
<path d="M2588 4124 c-24 -24 -4 -66 30 -62 33 4 51 32 36 56 -15 23 -45 26
-66 6z"/>
<path d="M2223 4134 c-15 -6 -17 -42 -4 -62 11 -18 51 -11 65 11 20 32 -22 67
-61 51z"/>
<path d="M2015 3820 c-10 -17 3 -57 21 -64 27 -10 56 12 52 42 -2 22 -9 28
-35 30 -17 2 -34 -2 -38 -8z"/>
<path d="M2414 3522 c-31 -21 -18 -72 19 -72 43 0 60 35 31 64 -17 17 -33 20
-50 8z"/>
<path d="M4373 1884 c-16 -7 -5 -34 13 -34 8 0 14 9 14 20 0 20 -5 23 -27 14z"/>
<path d="M4682 1881 c-8 -4 -12 -19 -10 -32 2 -18 9 -24 28 -24 19 0 26 6 28
24 3 20 -11 41 -28 41 -3 0 -11 -4 -18 -9z"/>
<path d="M4797 1884 c-14 -15 -6 -34 14 -34 14 0 19 5 17 17 -3 18 -20 27 -31
17z"/>
<path d="M4905 1882 c-6 -4 -11 -20 -11 -35 -1 -23 2 -28 20 -25 16 2 21 10
21 32 0 30 -12 41 -30 28z"/>
<path d="M5597 864 c-8 -8 3 -34 14 -34 11 0 12 27 0 34 -4 3 -11 3 -14 0z"/>
<path d="M5520 830 c0 -5 5 -10 10 -10 6 0 10 5 10 10 0 6 -4 10 -10 10 -5 0
-10 -4 -10 -10z"/>
<path d="M5444 799 c-10 -17 13 -36 27 -22 12 12 4 33 -11 33 -5 0 -12 -5 -16
-11z"/>
<path d="M5238 723 c7 -3 16 -2 19 1 4 3 -2 6 -13 5 -11 0 -14 -3 -6 -6z"/>
<path d="M3096 722 c-3 -5 1 -9 9 -9 8 0 12 4 9 9 -3 4 -7 8 -9 8 -2 0 -6 -4
-9 -8z"/>
<path d="M4975 651 c-9 -16 9 -20 23 -5 10 12 10 14 -2 14 -8 0 -17 -4 -21 -9z"/>
<path d="M3446 615 c-9 -26 -7 -32 5 -12 6 10 9 21 6 23 -2 3 -7 -2 -11 -11z"/>
<path d="M3506 615 c19 -14 19 -14 -1 -15 -16 0 -17 -2 -5 -9 18 -12 30 -5 30
20 0 13 -7 19 -22 19 -21 0 -21 0 -2 -15z"/>
<path d="M4520 586 c0 -2 9 -6 20 -9 11 -3 20 -1 20 4 0 5 -9 9 -20 9 -11 0
-20 -2 -20 -4z"/>
<path d="M3690 590 c0 -5 5 -10 10 -10 6 0 10 5 10 10 0 6 -4 10 -10 10 -5 0
-10 -4 -10 -10z"/>
<path d="M3900 560 c0 -13 5 -20 13 -17 6 2 12 10 12 17 0 7 -6 15 -12 18 -8
2 -13 -5 -13 -18z"/>
<path d="M4020 556 c0 -2 7 -7 16 -10 8 -3 12 -2 9 4 -6 10 -25 14 -25 6z"/>
<path d="M4200 550 c0 -11 5 -20 10 -20 6 0 10 9 10 20 0 11 -4 20 -10 20 -5
0 -10 -9 -10 -20z"/>
<path d="M4261 561 c-7 -5 -12 -14 -9 -21 2 -7 10 -4 22 9 19 21 12 28 -13 12z"/>
</g>
</svg>
